<!DOCTYPE svg PUBLIC "-//W3C//DTD SVG 1.1//EN" "http://www.w3.org/Graphics/SVG/1.1/DTD/svg11.dtd">
<!-- Uploaded to: SVG Repo, www.svgrepo.com, Transformed by: SVG Repo Mixer Tools -->
<svg width="121px" height="121px" viewBox="-1.6 -1.6 19.20 19.20" xmlns="http://www.w3.org/2000/svg" fill="none" stroke="#000000" stroke-width="0.8480000000000001" transform="matrix(1, 0, 0, 1, 0, 0)rotate(0)">
<g id="SVGRepo_bgCarrier" stroke-width="0"/>
<g id="SVGRepo_tracerCarrier" stroke-linecap="round" stroke-linejoin="round" stroke="#CCCCCC" stroke-width="1.6960000000000002">
<path fill="#2327d1" d="M3.682 15h5.659L15 6.766H9.634L3.682 15z"/>
<path fill="#283efd" d="M8 1h5.658l-3.98 5.766H15l-3.143 4.57H1L8 1z"/>
<path fill="#000000" d="M5.275 12.818l6.35-1.482H6.322l-1.048 1.482z"/>
</g>
<g id="SVGRepo_iconCarrier">
<path fill="#2327d1" d="M3.682 15h5.659L15 6.766H9.634L3.682 15z"/>
<path fill="#283efd" d="M8 1h5.658l-3.98 5.766H15l-3.143 4.57H1L8 1z"/>
<path fill="#000000" d="M5.275 12.818l6.35-1.482H6.322l-1.048 1.482z"/>
</g>
</svg>